<svg xmlns="http://www.w3.org/2000/svg" viewBox="0 0 56 64" fill="none" aria-hidden="true">
  <path d="M28 2L52 16v32L28 62 4 48V16L28 2z" fill="#2d3428" stroke="#1f241c" stroke-width="1"/>
  <path d="M28 8c-6 8-14 10-14 18 0 6 5 10 14 10s14-4 14-10c0-8-8-10-14-18z" fill="#b09e7a"/>
  <ellipse cx="28" cy="22" rx="3.5" ry="4" fill="#f4f1e9"/>
  <path d="M22 26c-2 1-3 3-3 5M34 26c2 1 3 3 3 5" stroke="#2d3428" stroke-width="1.2" stroke-linecap="round"/>
  <path d="M18 48c2-4 6-6 10-6s8 2 10 6" stroke="#b09e7a" stroke-width="1.5" stroke-linecap="round"/>
  <path d="M14 52h28" stroke="#b09e7a" stroke-width="1" opacity="0.6"/>
  <path d="M28 12v6M22 16l4 3M34 16l-4 3" stroke="#2d3428" stroke-width="1" stroke-linecap="round"/>
</svg>
